<svg xmlns="http://www.w3.org/2000/svg" xmlns:xlink="http://www.w3.org/1999/xlink" width="176" height="6863" viewBox="0 -0.831 176 6863" overflow="visible"><path fill="#E33D43" d="M86.983 43.166c0 23.85-19.332 43.174-43.17 43.174C19.97 86.34.64 67.016.64 43.166.64 19.324 19.97 0 43.812 0c23.838 0 43.17 19.324 43.17 43.166z"/><path fill="#FFF" d="M40.27 46.354l-1.03-15.427c-.193-3.003-.29-5.162-.29-6.474 0-1.78.468-3.172 1.4-4.17.936-.998 2.16-1.5 3.688-1.5 1.844 0 3.074.646 3.703 1.918.62 1.28.935 3.125.935 5.524 0 1.418-.082 2.858-.225 4.316l-1.385 15.878c-.153 1.893-.478 3.342-.968 4.348-.498 1.015-1.312 1.514-2.445 1.514-1.16 0-1.964-.483-2.415-1.465-.45-.974-.774-2.463-.966-4.46zm3.575 21.193c-1.312 0-2.456-.42-3.43-1.273-.983-.845-1.465-2.03-1.465-3.558 0-1.33.467-2.464 1.4-3.398.935-.934 2.077-1.4 3.43-1.4 1.353 0 2.504.467 3.46 1.4.95.935 1.435 2.07 1.435 3.398 0 1.505-.483 2.69-1.45 3.542-.965.863-2.092 1.29-3.38 1.29z"/><path fill="#F2B835" d="M86.983 1979.166c0 23.85-19.332 43.174-43.17 43.174-23.843 0-43.174-19.324-43.174-43.174 0-23.842 19.33-43.166 43.173-43.166 23.838 0 43.17 19.324 43.17 43.166z"/><path fill="#FFF" d="M40.27 1982.355l-1.03-15.428c-.193-3.003-.29-5.162-.29-6.475 0-1.78.468-3.172 1.4-4.17.936-.998 2.16-1.498 3.688-1.498 1.844 0 3.074.645 3.703 1.917.62 1.28.935 3.125.935 5.523 0 1.418-.082 2.86-.225 4.316l-1.385 15.878c-.153 1.893-.478 3.342-.968 4.348-.498 1.016-1.312 1.514-2.445 1.514-1.16 0-1.964-.482-2.415-1.465-.45-.974-.774-2.464-.966-4.46zm3.575 21.192c-1.312 0-2.456-.42-3.43-1.272-.983-.846-1.465-2.03-1.465-3.56 0-1.328.467-2.463 1.4-3.397.935-.934 2.077-1.4 3.43-1.4 1.353 0 2.504.467 3.46 1.4.95.935 1.435 2.07 1.435 3.398 0 1.506-.483 2.69-1.45 3.542-.965.863-2.092 1.29-3.38 1.29z"/><path fill="#E33D43" d="M.38 395.165c0 19.605 15.885 35.488 35.488 35.488 19.593 0 52.15-35.488 52.15-35.488s-32.557-35.477-52.15-35.477c-19.602 0-35.49 15.878-35.49 35.477z"/><path fill="#FFF" d="M37.752 401.862c-.393.857-1.095 1.282-2.108 1.282-1 0-1.71-.44-2.143-1.324-.434-.88-.715-2.15-.845-3.804L31.44 384.12c-.128-1.274-.192-2.534-.192-3.775 0-2.104.27-3.716.81-4.83.55-1.12 1.63-1.68 3.247-1.68 1.332 0 2.408.44 3.225 1.31.817.878 1.23 2.094 1.23 3.65 0 1.147-.09 3.035-.26 5.664l-.9 13.5c-.172 1.746-.454 3.046-.848 3.902zm-5.24 13.513c-.847-.75-1.264-1.782-1.264-3.1 0-1.163.417-2.154 1.252-2.974.832-.812 1.848-1.224 3.03-1.224 1.184 0 2.183.41 3 1.225.816.82 1.228 1.812 1.228 2.976 0 1.332-.428 2.37-1.285 3.11-.857.745-1.855 1.117-2.998 1.117-1.127 0-2.118-.376-2.963-1.128z"/><path fill="#F0B611" d="M.18 923.165c0 19.604 15.886 35.487 35.49 35.487 19.592 0 52.15-35.487 52.15-35.487s-32.558-35.478-52.15-35.478c-19.604 0-35.49 15.88-35.49 35.478z"/><path fill="#FFF" d="M35.435 923.715V913.1c0-1.117-.902-2.02-2.02-2.02s-2.02.902-2.02 2.02v12.613l8.81 6.73c.366.278.796.413 1.225.413.607 0 1.21-.274 1.607-.794.676-.888.506-2.156-.38-2.832l-7.222-5.515z"/><path fill="#FFF" d="M35.238 900.917c-12.29 0-22.252 9.964-22.252 22.253 0 12.287 9.963 22.25 22.252 22.25 12.288 0 22.252-9.963 22.252-22.25 0-12.29-9.965-22.253-22.252-22.253zm0 40.407c-10.027 0-18.156-8.128-18.156-18.153 0-10.025 8.13-18.155 18.156-18.155 10.026 0 18.155 8.13 18.155 18.156 0 10.026-8.13 18.154-18.155 18.154z"/><path fill="#56B349" d="M87.084 1275.165c0 23.8-19.29 43.086-43.086 43.086-23.792 0-43.082-19.284-43.082-43.085 0-23.793 19.29-43.077 43.082-43.077 23.797 0 43.086 19.284 43.086 43.077z"/><path fill="#FFF" d="M61.922 1268.225H41.628v-7.322c0-.832-.182-1.583-.95-1.9-.76-.312-1.654-.14-2.24.445l-14.264 14.268c-.383.386-.6.91-.6 1.455 0 .547.216 1.07.6 1.456l14.264 14.26c.394.392.92.6 1.454.6.265 0 .534-.05.787-.156.767-.316.948-1.068.948-1.9v-7.475H61.92c1.138 0 2.058-.92 2.058-2.057v-9.614c0-1.14-.92-2.06-2.056-2.06z"/><path fill="#E33D43" d="M87.084 1627.167c0 23.8-19.29 43.084-43.086 43.084-23.792 0-43.083-19.283-43.083-43.083 0-23.794 19.29-43.077 43.083-43.077 23.797 0 43.086 19.283 43.086 43.077z"/><path fill="#FFF" d="M60.957 1635.744l-8.57-8.57 8.576-8.572c2.316-2.318 2.316-6.084.004-8.398-2.316-2.313-6.08-2.313-8.398.006l-8.576 8.572-8.572-8.572c-2.315-2.315-6.075-2.328-8.393-.01-2.31 2.314-2.315 6.084 0 8.402l8.575 8.572-8.576 8.574c-2.31 2.31-2.31 6.07.003 8.39 2.313 2.313 6.078 2.313 8.39.005l8.57-8.575 8.576 8.57c2.313 2.313 6.085 2.313 8.397.005 2.32-2.325 2.308-6.086-.01-8.4z"/><path fill="#56B349" d="M87.08 1451.166c0 23.8-19.285 43.084-43.083 43.084-23.793 0-43.078-19.285-43.078-43.084 0-23.793 19.283-43.078 43.077-43.078 23.798 0 43.083 19.285 43.083 43.078z"/><path fill="#FFF" d="M62.06 1445.357H50.173v-12.24c0-3.277-2.9-5.92-6.17-5.92-3.278 0-5.58 2.643-5.58 5.92v12.24H25.94c-3.27 0-5.675 2.533-5.675 5.812 0 3.27 2.404 5.933 5.675 5.937l12.492-.004-.01 12.134c0 3.266 2.302 6.03 5.582 6.03 3.27.003 6.17-2.765 6.17-6.03v-12.13l11.884-.004c3.27 0 5.205-2.663 5.205-5.93 0-3.287-1.935-5.82-5.204-5.816z"/><path fill="#E33D43" d="M87.084 1803.166c0 23.8-19.29 43.084-43.086 43.084-23.792 0-43.083-19.283-43.083-43.084 0-23.793 19.29-43.078 43.083-43.078 23.797 0 43.086 19.285 43.086 43.078z"/><path fill="#FFF" d="M67.98 1803.17c0 3.265-2.647 5.577-5.92 5.577H25.94c-3.27 0-5.92-2.312-5.92-5.578 0-3.267 2.65-6.175 5.92-6.175h36.12c3.272 0 5.92 2.91 5.92 6.174z"/><path fill="#BECFE1" d="M88 1140.414H42.423c-5.815 0-10.53-4.715-10.53-10.53v-61.43c0-5.815 4.715-10.53 10.53-10.53H88v-1.755H40.668c-5.814 0-10.53 4.713-10.53 10.53v64.938c0 5.815 4.716 10.53 10.53 10.53H88v-1.754z"/><path fill="#E6F2FF" d="M59.975 1099.692c0 16.292-13.198 29.49-29.49 29.49-16.282 0-29.484-13.198-29.484-29.49 0-16.282 13.204-29.48 29.484-29.48 16.292-.002 29.49 13.198 29.49 29.48z"/><path fill="#7FA1C2" d="M44.803 1095.394l-5.543-8.74c-.672-1.083-2.452-1.083-3.127 0l-5.544 8.74c-.355.566-.375 1.28-.05 1.865.324.582.944.91 1.612.91h3.05v14.05c0 .617.468.95 1.06.95H39c.583 0 1-.333 1-.95v-14.05h3.24c.668 0 1.284-.328 1.608-.91.328-.586.307-1.3-.045-1.866zM26.885 1101.195h-3.043v-14.097c0-.62-.478-.93-1.063-.93h-3.717c-.588 0-1.062.31-1.062.93v14.097H15.8c-.668 0-1.29.358-1.608.946-.33.585-.31 1.294.043 1.865l5.546 8.76c.67 1.086 2.45 1.086 3.123 0l5.546-8.76c.35-.57.37-1.28.048-1.864-.327-.587-.947-.945-1.613-.945z"/><path fill="#CCC" d="M.18 747.164c0 19.605 15.887 35.488 35.49 35.488 19.592 0 52.15-35.488 52.15-35.488s-32.56-35.477-52.15-35.477c-19.604 0-35.49 15.88-35.49 35.477z"/><path fill="#FFF" d="M52.706 735.92l-2.5-2.452c-.822-.806-2.15-.792-2.956.028L29.368 751.73l-7.67-7.52c-.82-.805-2.15-.792-2.957.03l-2.452 2.5c-.805.822-.79 2.152.03 2.957l11.666 11.438c.82.805 2.15.792 2.955-.03l2.455-2.5c.002-.002.002-.004.002-.005l19.34-19.724c.804-.82.79-2.15-.03-2.956z"/><path fill="#56B349" d="M.18 570.646c0 19.605 15.887 35.488 35.49 35.488 19.592 0 52.15-35.488 52.15-35.488S55.26 535.17 35.67 535.17c-19.604 0-35.49 15.878-35.49 35.476z"/><path fill="#FFF" d="M52.706 559.403l-2.5-2.452c-.822-.805-2.15-.79-2.956.03l-17.882 18.234-7.67-7.52c-.82-.806-2.15-.793-2.957.028l-2.452 2.502c-.805.82-.79 2.15.03 2.956l11.666 11.438c.82.805 2.15.792 2.955-.03l2.455-2.5c.002-.002.002-.004.002-.005l19.34-19.724c.804-.82.79-2.152-.03-2.957z"/><path fill="#56B349" d="M87.17 219.166c0 23.848-19.33 43.174-43.17 43.174-23.843 0-43.17-19.326-43.17-43.174C.83 195.324 20.156 176 44 176c23.84 0 43.17 19.323 43.17 43.166z"/><path fill="#FFF" d="M68.153 204.215l-3.318-3.254c-1.09-1.07-2.854-1.05-3.923.04L37.18 225.2 27 215.216c-1.09-1.068-2.855-1.05-3.923.04l-3.256 3.32c-1.067 1.09-1.048 2.854.04 3.92l15.483 15.182c1.09 1.067 2.854 1.05 3.92-.04l3.26-3.32c.003-.002.003-.005.004-.007l25.666-26.177c1.07-1.087 1.053-2.853-.04-3.92z"/><path fill="#0098CD" d="M.64 2155.343c0-23.85 19.332-43.174 43.17-43.174 23.843 0 43.174 19.323 43.174 43.173 0 23.842-19.33 43.166-43.174 43.166-23.838 0-43.17-19.325-43.17-43.167z"/><path fill="#FFF" d="M43.778 2130.96c1.312 0 2.456.42 3.43 1.273.983.846 1.465 2.03 1.465 3.56 0 1.328-.467 2.463-1.4 3.397-.935.934-2.077 1.4-3.43 1.4-1.353 0-2.504-.467-3.46-1.4-.95-.935-1.435-2.07-1.435-3.398 0-1.506.483-2.69 1.45-3.542.965-.862 2.092-1.29 3.38-1.29zM48.084 2178.96l-8.417 1v-33.333h8.417"/><path fill="#0098CD" d="M42.5 2464.17c-23.472 0-42.5 19.028-42.5 42.5 0 23.473 19.028 42.5 42.5 42.5H85v-42.5c0-23.47-19.027-42.5-42.5-42.5z"/><path fill="#FFF" d="M59.23 2532.335l-16.68-12.12-16.678 12.12 6.37-19.607-16.678-12.12H36.18l6.37-19.604 6.37 19.605h20.615l-16.677 12.118"/><path fill="#365EBF" d="M32.863 2303.194l-20.395 23.734c-.984 1.125-1.47 2.516-1.47 3.914 0 1.39.485 2.785 1.47 3.906l20.395 23.738c1.63 1.86 4.242 2.516 6.555 1.648 2.31-.87 5.516-3.086 5.516-5.56v-6.406H71v-8H38v14.407l-21-23.734 21-23.733v13.062h33v-7H44.934v-6.063c0-2.477-3.207-4.69-5.516-5.56-2.313-.87-4.926-.213-6.555 1.647z"/><path fill="#B52B6E" d="M55.91 2709.17H34.14c-2 0-3.63 1.987-3.63 4 0 2.003 1.63 4 3.63 4h21.77c2.008 0 3.633-1.997 3.633-4 0-2.012-1.625-4-3.633-4zM55.91 2719.17H34.14c-2 0-3.63 2.354-3.63 4.362s1.63 3.637 3.63 3.637h21.77c2.008 0 3.633-1.63 3.633-3.638s-1.625-4.363-3.633-4.363zM45.004 2639.17c-15.457 0-28.03 12.573-28.03 28.03 0 4.93 1.292 9.77 3.737 14l.755 1.312c.953 1.637 1.844 3.07 2.672 4.406 2.754 4.43 4.156 6.688 4.656 11.297.3 4.988 4.457 8.953 9.523 8.953h13.387c5.066 0 9.227-3.97 9.527-8.96.488-4.6 1.89-6.853 4.64-11.278.833-1.34 1.728-2.777 2.67-4.402l.77-1.328c2.444-4.246 3.737-9.086 3.737-14 0-15.456-12.582-28.03-28.043-28.03zm17.375 38.03l-.76 1.313c-4.296 7.402-7.546 10.78-8.374 19.117 0 .852-.69 1.54-1.543 1.54H38.316c-.852 0-1.543-.69-1.543-1.54-.836-8.34-4.078-11.715-8.38-19.117l-.757-1.312c-1.7-2.94-2.664-6.354-2.664-10 0-11.058 8.973-20.03 20.03-20.03 11.07 0 20.044 8.973 20.044 20.03 0 3.645-.972 7.06-2.667 10z"/><path fill="#B52B6E" d="M56.383 2662.88c-1.203-.61-2.656-.133-3.258 1.062l-1.238 2.438-1.184.47-1.473-2.903c-.414-.816-1.25-1.332-2.164-1.332s-1.75.516-2.16 1.328l-1.95 3.84-1.944-3.836c-.414-.816-1.25-1.332-2.164-1.332s-1.75.516-2.16 1.328l-4.117 8.105c-.608 1.195-.132 2.652 1.063 3.258.352.18.727.266 1.098.266.884 0 1.735-.484 2.16-1.328l1.24-2.438 1.187-.47 1.473 2.903c.414.815 1.25 1.33 2.164 1.33s1.75-.515 2.16-1.327l1.95-3.84 1.944 3.836c.414.815 1.25 1.33 2.164 1.33s1.75-.515 2.16-1.327l4.113-8.105c.61-1.195.133-2.652-1.062-3.258z"/><path fill="#365EBF" d="M51.137 2831.194l20.395 23.734c.984 1.125 1.47 2.516 1.47 3.914 0 1.39-.485 2.785-1.47 3.906l-20.395 23.738c-1.63 1.86-4.242 2.516-6.555 1.648-2.31-.87-5.516-3.086-5.516-5.56v-6.406H13v-8h33v14.407l21-23.734-21-23.733v13.062H13v-7h26.066v-6.063c0-2.477 3.207-4.69 5.516-5.56 2.313-.87 4.926-.213 6.555 1.647z"/><path fill="#E33D43" d="M40.27 3038.355l-1.03-15.428c-.193-3.003-.29-5.162-.29-6.475 0-1.78.468-3.172 1.4-4.17.936-.998 2.16-1.498 3.688-1.498 1.844 0 3.074.645 3.703 1.917.62 1.28.935 3.125.935 5.523 0 1.418-.082 2.86-.225 4.316l-1.385 15.878c-.153 1.893-.478 3.342-.968 4.348-.498 1.016-1.312 1.514-2.445 1.514-1.16 0-1.964-.482-2.415-1.465-.45-.974-.774-2.464-.966-4.46zm3.575 21.192c-1.312 0-2.456-.42-3.43-1.272-.983-.846-1.465-2.03-1.465-3.56 0-1.328.467-2.463 1.4-3.397.935-.934 2.077-1.4 3.43-1.4 1.353 0 2.504.467 3.46 1.4.95.935 1.435 2.07 1.435 3.398 0 1.506-.483 2.69-1.45 3.542-.965.863-2.092 1.29-3.38 1.29z"/><path fill="#56B349" d="M68.153 3196.214l-3.318-3.254c-1.09-1.07-2.854-1.05-3.923.037l-23.732 24.2-10.18-9.98c-1.09-1.067-2.855-1.05-3.923.04l-3.256 3.32c-1.067 1.09-1.048 2.853.04 3.922l15.483 15.18c1.09 1.068 2.854 1.052 3.92-.04l3.26-3.32c.003 0 .003-.004.004-.006l25.666-26.176c1.07-1.09 1.053-2.855-.04-3.924z"/><path fill="#AEC3DD" d="M68.153 3372.214l-3.318-3.254c-1.09-1.07-2.854-1.05-3.923.037l-23.732 24.2-10.18-9.98c-1.09-1.067-2.855-1.05-3.923.04l-3.256 3.32c-1.067 1.09-1.048 2.853.04 3.922l15.483 15.18c1.09 1.068 2.854 1.052 3.92-.04l3.26-3.32c.003 0 .003-.004.004-.006l25.666-26.176c1.07-1.09 1.053-2.855-.04-3.924z"/><path fill="#1896D3" d="M76 3550.06c0-4.555-3.326-8.986-7.676-9.73-.33-.064-.674-.082-1.014-.105-.186-.012-.363-.055-.55-.055H36.81c-5.093 0-10.81 4.8-10.81 9.89v39.453c0 5.093 5.717 9.657 10.81 9.657h20.852c3.346 0 7.34-2.07 9.713-4.435l4.58-4.562c2.375-2.37 4.035-6.363 4.035-9.72v-.02H76v-30.373zm-24.797 31.517v11.593H36.81c-1.755 0-3.81-1.902-3.81-3.657v-39.452c0-1.747 2.055-3.89 3.81-3.89H66.76c1.756 0 3.24 2.143 3.24 3.89v24.282c-2.63-.004-5.262.14-8.994 0H58.78c-3.864 0-7.577 3.37-7.577 7.235zm16.48 4.313l-4.575 4.56c-1.207 1.2-3.54 2.454-5.283 2.513v-11.386c0-.52.438-1.407.957-1.407H69.92c-.057 1.738-1.03 4.52-2.236 5.72z"/><path fill="#1896D3" d="M62.39 3537.1c0-4.562-3.33-9.026-7.677-9.77-.33-.067-.672-.08-1.014-.103-.187-.012-.362-.06-.55-.06H23.2c-5.094 0-10.2 4.15-10.2 9.242v38.978c0 5.093 5.8 9.24 10.893 9.24v-6.05c-1.755 0-3.892-1.437-3.892-3.19v-38.98c0-1.754 1.445-3.24 3.2-3.24H53.15c1.756 0 3.188 2.176 3.188 3.93h6.05z"/><path fill="#F2B835" d="M87.22 3915.282c0 23.85-19.333 43.174-43.17 43.174-23.844 0-43.175-19.324-43.175-43.174 0-23.842 19.33-43.166 43.174-43.166 23.837 0 43.17 19.324 43.17 43.166z"/><path fill="#FFF" d="M22 3911.17h44v9H22zM42.715 4080.346c-.752-.757-1.893-.984-2.882-.57-.987.406-1.632 1.37-1.632 2.442v17.924c0 1.072.646 2.035 1.633 2.445.33.135.673.2 1.012.2.69 0 1.366-.27 1.87-.774l8.964-8.965c1.032-1.033 1.032-2.706 0-3.74l-8.965-8.962z"/><path fill="#FFF" d="M66.395 4068.787c-5.984-5.98-13.94-9.28-22.394-9.28-8.456 0-16.41 3.3-22.395 9.28-5.98 5.982-9.275 13.936-9.275 22.395s3.295 16.412 9.275 22.394c5.985 5.98 13.94 9.276 22.396 9.276 8.456 0 16.41-3.295 22.395-9.276 5.982-5.98 9.275-13.935 9.275-22.394s-3.293-16.413-9.275-22.395zm-3.74 41.047c-4.983 4.985-11.608 7.728-18.655 7.728-7.048 0-13.672-2.742-18.657-7.728-4.98-4.98-7.727-11.61-7.727-18.653 0-7.045 2.747-13.67 7.727-18.657 4.985-4.98 11.61-7.724 18.657-7.724 7.046 0 13.67 2.742 18.654 7.723 4.982 4.986 7.73 11.612 7.73 18.658 0 7.045-2.747 13.673-7.73 18.654z"/><path fill="#B1D5E0" d="M42.715 4256.328c-.752-.757-1.893-.984-2.882-.57-.987.406-1.632 1.37-1.632 2.442v17.924c0 1.072.646 2.035 1.633 2.445.33.134.673.2 1.012.2.69 0 1.366-.27 1.87-.775l8.964-8.965c1.032-1.033 1.032-2.706 0-3.74l-8.965-8.962z"/><path fill="#B1D5E0" d="M66.395 4244.768c-5.984-5.98-13.94-9.28-22.394-9.28-8.456 0-16.41 3.3-22.395 9.28-5.98 5.982-9.275 13.936-9.275 22.395s3.295 16.412 9.275 22.394c5.985 5.98 13.94 9.276 22.396 9.276 8.456 0 16.41-3.295 22.395-9.276 5.982-5.98 9.275-13.935 9.275-22.394s-3.293-16.413-9.275-22.395zm-3.74 41.048c-4.983 4.985-11.608 7.728-18.655 7.728-7.048 0-13.672-2.742-18.657-7.728-4.98-4.98-7.727-11.61-7.727-18.653 0-7.046 2.747-13.672 7.727-18.658 4.985-4.98 11.61-7.724 18.657-7.724 7.046 0 13.67 2.744 18.654 7.725 4.982 4.986 7.73 11.612 7.73 18.658 0 7.044-2.747 13.67-7.73 18.653z"/><path fill="#D7B1CB" d="M42.715 4432.346c-.752-.757-1.893-.984-2.882-.57-.987.406-1.632 1.37-1.632 2.442v17.924c0 1.072.646 2.035 1.633 2.445.33.135.673.2 1.012.2.69 0 1.366-.27 1.87-.774l8.964-8.965c1.032-1.033 1.032-2.706 0-3.74l-8.965-8.962z"/><path fill="#D7B1CB" d="M66.395 4420.787c-5.984-5.98-13.94-9.28-22.394-9.28-8.456 0-16.41 3.3-22.395 9.28-5.98 5.982-9.275 13.936-9.275 22.395s3.295 16.412 9.275 22.394c5.985 5.98 13.94 9.276 22.396 9.276 8.456 0 16.41-3.295 22.395-9.276 5.982-5.98 9.275-13.935 9.275-22.394s-3.293-16.413-9.275-22.395zm-3.74 41.047c-4.983 4.985-11.608 7.728-18.655 7.728-7.048 0-13.672-2.742-18.657-7.728-4.98-4.98-7.727-11.61-7.727-18.653 0-7.045 2.747-13.67 7.727-18.657 4.985-4.98 11.61-7.724 18.657-7.724 7.046 0 13.67 2.742 18.654 7.723 4.982 4.986 7.73 11.612 7.73 18.658 0 7.045-2.747 13.673-7.73 18.654z"/><path fill="#FFCF99" d="M42.715 4608.336c-.752-.757-1.893-.984-2.882-.57-.987.406-1.632 1.37-1.632 2.442v17.924c0 1.072.646 2.035 1.633 2.445.33.135.673.2 1.012.2.69 0 1.366-.27 1.87-.774l8.964-8.965c1.032-1.033 1.032-2.706 0-3.74l-8.965-8.962z"/><path fill="#FFCF99" d="M66.395 4596.777c-5.984-5.98-13.94-9.28-22.394-9.28-8.456 0-16.41 3.3-22.395 9.28-5.98 5.982-9.275 13.936-9.275 22.395s3.295 16.412 9.275 22.394c5.985 5.98 13.94 9.276 22.396 9.276 8.456 0 16.41-3.295 22.395-9.276 5.982-5.98 9.275-13.935 9.275-22.394s-3.293-16.413-9.275-22.395zm-3.74 41.048c-4.983 4.985-11.608 7.728-18.655 7.728-7.048 0-13.672-2.742-18.657-7.728-4.98-4.98-7.727-11.61-7.727-18.653 0-7.046 2.747-13.672 7.727-18.658 4.985-4.98 11.61-7.724 18.657-7.724 7.046 0 13.67 2.743 18.654 7.724 4.982 4.986 7.73 11.612 7.73 18.658 0 7.043-2.747 13.67-7.73 18.653z"/><path fill="#FFF" d="M72.026 4784.528c0-4.07-3.46-7.694-7.342-8.358-.295-.06-.602-.072-.904-.094-.166-.01-.324-.05-.49-.05H36.556c-4.547 0-8.53 3.955-8.53 8.502v34.795c0 4.547 3.983 6.847 8.53 6.847h18.61c2.99 0 6.555-.07 8.672-2.18l4.088-4.073c2.12-2.114 4.093-5.684 4.093-8.68v-.015h.007v-26.694zm-23 27.713v8.93h-12.47c-1.567 0-3.53-.28-3.53-1.847v-34.795c0-1.564 1.963-3.358 3.53-3.358H63.29c1.566 0 2.846 1.794 2.846 3.358v21.587c-2.348-.008-4.652.127-7.983 0h-1.985c-3.45 0-7.142 2.677-7.142 6.126zm15.086 3.852l-4.085 4.07c-1.076 1.07-4.3 1.938-5.855 1.988v-9.91c0-.465.39-2.07.854-2.07h11.082c-.05 1.55-.92 4.85-1.996 5.922z"/><path fill="#FFF" d="M59.387 4771.17c0-4.07-2.97-6.337-6.852-7-.295-.06-.6-.07-.904-.093-.166-.01-.323-.05-.49-.05H24.408c-4.547 0-8.38 3.35-8.38 7.896v34.797c0 4.546 3.454 8.246 8 8.246v-5.4c-1.566 0-3.026-1.28-3.026-2.846v-34.797c0-1.564 1.84-3.755 3.406-3.755H51.14c1.567 0 2.846 1.436 2.846 3h5.4z"/><path fill="#D193B1" d="M71.008 4960.462c0-4.07-2.44-7.63-6.323-8.293-.295-.06-.602-.073-.904-.095-.165-.01-.323-.05-.49-.05H36.557c-4.547 0-8.53 3.89-8.53 8.437v34.795c0 4.547 3.983 6.912 8.53 6.912h18.61c2.99 0 6.555-.138 8.672-2.247l4.088-4.072c2.12-2.113 3.074-5.683 3.074-8.678v-.016h.008v-26.694zm-21.982 27.713v8.994h-12.47c-1.567 0-3.556-.346-3.556-1.913v-34.795c0-1.564 1.988-3.293 3.555-3.293H63.29c1.566 0 2.846 1.728 2.846 3.292v21.652c-2.348-.008-4.652.127-7.983 0h-1.985c-3.45 0-7.142 2.612-7.142 6.06zm15.086 3.852l-4.085 4.07c-1.076 1.07-4.3 1.938-5.855 1.988v-9.91c0-.465.39-2.006.854-2.006h11.082c-.05 1.55-.92 4.785-1.996 5.857z"/><path fill="#D193B1" d="M59.387 4947.17c0-4.07-2.97-6.337-6.852-7-.295-.06-.6-.07-.904-.093-.166-.01-.323-.05-.49-.05H24.408c-4.547 0-8.38 3.284-8.38 7.83v34.798c0 4.546 3.454 8.246 8 8.246v-5.4c-1.566 0-3.026-1.278-3.026-2.845v-34.797c0-1.564 1.84-3.69 3.406-3.69H51.14c1.567 0 2.846 1.437 2.846 3h5.4z"/><path fill="#FFF" d="M16.017 5176.357c-.632 0-1.26-.2-1.785-.586-.764-.56-1.213-1.46-1.213-2.41v-46.093c0-1.316.856-2.48 2.115-2.867l18.612-6.273c.912-.277 1.896-.11 2.664.453.767.57.608 1.46.608 2.412v46.09c0 1.318-.25 2.482-1.508 2.867l-18.615 6.276c-.29.088-.585.13-.878.13zm2.002-46.875v39.82l14-4.436v-39.814l-14 4.43zM53.727 5176.357c-.63 0-1.257-.2-1.78-.586-.764-.56-.928-1.46-.928-2.41v-46.093c0-1.316.57-2.48 1.827-2.867l18.943-6.273c.91-.277 1.24-.11 2.014.453.762.57 1.215 1.46 1.215 2.412v46.09c0 1.318-.86 2.482-2.118 2.867l-18.29 6.276c-.292.088-.588.13-.885.13zm2.292-46.875v39.82l14-4.436v-39.814l-14 4.43z"/><path fill="#FFF" d="M53.727 5176.357c-.312 0-.628-.05-.937-.148l-19.098-6.28c-1.23-.4-2.674-1.553-2.674-2.848v-46.09c0-.96 1.072-1.863 1.85-2.426.783-.564 1.78-.717 2.697-.422l19.1 6.273c1.228.404 2.353 1.555 2.353 2.85v46.092c0 .96-.752 1.864-1.53 2.425-.52.38-1.135.572-1.76.572zm-16.708-11.443l14 4.305v-39.782l-14-4.303v39.78z"/><path fill="#F3BD83" d="M16.017 5352.362c-.632 0-1.26-.2-1.785-.586-.764-.562-1.213-1.46-1.213-2.412v-46.092c0-1.316.856-2.48 2.115-2.867l18.612-6.273c.912-.277 1.896-.11 2.664.453.767.57.608 1.462.608 2.412v46.09c0 1.318-.25 2.482-1.508 2.867l-18.615 6.277c-.29.09-.585.132-.878.132zm2.002-46.875v39.82l14-4.436v-39.813l-14 4.43zM53.727 5352.362c-.63 0-1.257-.2-1.78-.586-.764-.562-.928-1.46-.928-2.412v-46.092c0-1.316.57-2.48 1.827-2.867l18.943-6.273c.91-.277 1.24-.11 2.014.453.762.57 1.215 1.462 1.215 2.412v46.09c0 1.318-.86 2.482-2.118 2.867l-18.29 6.277c-.292.09-.588.132-.885.132zm2.292-46.875v39.82l14-4.436v-39.813l-14 4.43z"/><path fill="#F3BD83" d="M53.727 5352.362c-.312 0-.628-.05-.937-.148l-19.098-6.28c-1.23-.4-2.674-1.552-2.674-2.846v-46.09c0-.96 1.072-1.864 1.85-2.427.783-.563 1.78-.716 2.697-.42l19.1 6.272c1.228.404 2.353 1.555 2.353 2.85v46.092c0 .96-.752 1.865-1.53 2.426-.52.38-1.135.572-1.76.572zm-16.708-11.444l14 4.305v-39.78l-14-4.304v39.778z"/><path fill="#FFF" d="M57.64 5488.06h19.903l-33.437-32.828-33.648 32.828h17.548c-.612 43.89-13.118 48.748-13.256 48.795l1.63 6.355c19.376-4.308 39.86-24.972 41.26-55.15z"/><path fill="#7090AB" d="M57.64 5664.06h19.903l-33.437-32.828-33.648 32.828h17.548c-.612 43.89-13.118 48.748-13.256 48.795l1.63 6.355c19.376-4.308 39.86-24.972 41.26-55.15z"/><path fill="#E33D43" d="M87.82 5850.83c0 19.605-15.887 35.488-35.49 35.488-19.593 0-52.15-35.488-52.15-35.488s32.558-35.477 52.15-35.477c19.604 0 35.49 15.88 35.49 35.477z"/><path fill="#FFF" d="M55.752 5857.527c-.393.857-1.095 1.282-2.108 1.282-1 0-1.71-.442-2.143-1.325-.434-.88-.715-2.15-.845-3.804l-1.216-13.894c-.128-1.275-.192-2.535-.192-3.776 0-2.104.27-3.716.81-4.83.55-1.12 1.63-1.68 3.247-1.68 1.332 0 2.408.44 3.225 1.31.817.878 1.23 2.094 1.23 3.65 0 1.147-.09 3.035-.26 5.664l-.9 13.5c-.172 1.747-.454 3.047-.848 3.903zm-5.24 13.513c-.848-.75-1.264-1.782-1.264-3.1 0-1.163.416-2.154 1.252-2.974.832-.813 1.848-1.225 3.03-1.225 1.184 0 2.183.412 3 1.226.816.82 1.228 1.81 1.228 2.975 0 1.333-.428 2.37-1.285 3.112-.857.744-1.855 1.117-2.998 1.117-1.127 0-2.118-.378-2.963-1.13z"/><path fill="#F0B611" d="M88.02 6378.83c0 19.604-15.887 35.487-35.49 35.487-19.593 0-52.15-35.487-52.15-35.487s32.558-35.478 52.15-35.478c19.603 0 35.49 15.88 35.49 35.478z"/><path fill="#FFF" d="M54.436 6379.38v-10.616c0-1.116-.902-2.02-2.02-2.02s-2.02.903-2.02 2.02v12.614l8.81 6.73c.366.278.796.413 1.225.413.608 0 1.21-.273 1.608-.793.676-.888.506-2.156-.38-2.832l-7.222-5.515z"/><path fill="#FFF" d="M54.238 6356.583c-12.29 0-22.252 9.964-22.252 22.253 0 12.287 9.963 22.252 22.252 22.252 12.287 0 22.252-9.965 22.252-22.252 0-12.29-9.965-22.253-22.252-22.253zm0 40.406c-10.027 0-18.157-8.13-18.157-18.154 0-10.026 8.13-18.156 18.158-18.156 10.025 0 18.154 8.13 18.154 18.156 0 10.025-8.128 18.153-18.154 18.153z"/><path fill="#CCC" d="M88.02 6202.83c0 19.604-15.887 35.487-35.49 35.487-19.592 0-52.15-35.487-52.15-35.487s32.56-35.478 52.15-35.478c19.603 0 35.49 15.88 35.49 35.478z"/><path fill="#FFF" d="M71.706 6191.585l-2.5-2.452c-.822-.806-2.15-.792-2.956.028l-17.883 18.235-7.67-7.52c-.82-.806-2.15-.793-2.956.028l-2.452 2.502c-.805.82-.79 2.15.03 2.956l11.666 11.44c.82.805 2.15.792 2.955-.03l2.455-2.502c.002 0 .002-.002.002-.002l19.34-19.726c.804-.82.79-2.15-.03-2.955z"/><path fill="#56B349" d="M88.02 6026.312c0 19.604-15.887 35.487-35.49 35.487-19.592 0-52.15-35.488-52.15-35.488s32.56-35.478 52.15-35.478c19.603 0 35.49 15.88 35.49 35.478z"/><path fill="#FFF" d="M71.706 6015.068l-2.5-2.452c-.822-.806-2.15-.792-2.956.028l-17.883 18.234-7.67-7.52c-.82-.806-2.15-.793-2.956.028l-2.452 2.502c-.805.82-.79 2.15.03 2.956l11.666 11.438c.82.806 2.15.793 2.955-.03l2.455-2.5.002-.003 19.34-19.727c.804-.82.79-2.15-.03-2.955z"/><defs><path id="a" d="M0 6511.255h87.79v87.79H0z"/></defs><clipPath id="b"><use xlink:href="#a" overflow="visible"/></clipPath><path clip-path="url(#b)" fill="#0098CD" d="M87.79 6555.15c0 24.242-19.653 43.895-43.896 43.895-24.242 0-43.894-19.653-43.894-43.895 0-24.244 19.652-43.896 43.894-43.896 24.243 0 43.896 19.652 43.896 43.896"/><path clip-path="url(#b)" fill="#FFF" d="M27.086 6524.753h7.642v5.094h-7.642zM41.096 6524.753h7.642v5.094h-7.642zM52.558 6524.753H60.2v5.094h-7.642zM63.296 6549.328h-3.1v-14.387h-7.64v14.388h-3.82v-14.387h-7.643v14.388h-6.367v-14.387h-7.642v14.388h-2.59c-6.118 0-11.092 4.975-11.092 11.09v26.29c2.436 2.356 5.14 4.433 8.07 6.177v-17.163c4.756-.53 6.465-3.228 7.64-5.093.926-1.474 1.175-1.87 2.597-1.87 1.62 0 2.09.53 3.333 2.197 1.442 1.937 3.624 4.86 9.01 4.86 5.388 0 7.43-2.755 8.922-4.767 1.137-1.53 1.654-2.23 3.515-2.29 1.754-.07 2.046.386 3.085 1.86 1.142 1.613 2.788 3.93 6.743 4.846v17.418c2.928-1.744 5.632-3.82 8.07-6.176v-26.29c0-6.116-4.978-11.09-11.092-11.09m.673 18.187c-1.278-1.81-3.067-4.28-7.657-4.133-4.456.147-6.306 2.64-7.658 4.463-1.24 1.67-1.922 2.59-4.6 2.59-2.69 0-3.444-1.014-4.698-2.693-1.374-1.84-3.25-4.36-7.647-4.36-4.395 0-6.054 2.637-7.152 4.384-.812 1.295-1.408 2.187-3.085 2.523v-9.872c0-1.666 1.355-3.02 3.022-3.02h38.802c1.665 0 3.022 1.354 3.022 3.02v9.415c-1.076-.515-1.638-1.31-2.35-2.318"/><g><defs><path id="c" d="M0 6687.24h87.917v87.915H0z"/></defs><clipPath id="d"><use xlink:href="#c" overflow="visible"/></clipPath><path clip-path="url(#d)" fill="#0098CD" d="M87.917 6731.197c0 24.277-19.682 43.958-43.96 43.958-24.275 0-43.957-19.68-43.957-43.958 0-24.28 19.682-43.96 43.958-43.96 24.277 0 43.96 19.68 43.96 43.96"/><path clip-path="url(#d)" fill="#FFF" d="M55.007 6743.16v17.7l-10.753-9.953-11.347 9.952v-17.7c-2.22-.19-4.297-.998-6.043-2.266v19.965c0 2.37 1.388 4.526 3.55 5.505.798.36 1.648.54 2.492.54 1.44 0 2.862-.515 3.988-1.5l7.252-6.362 6.76 6.252c1.138 1.056 2.61 1.61 4.104 1.61.817 0 1.642-.168 2.42-.507 2.202-.963 3.624-3.137 3.624-5.54v-19.962c-1.746 1.266-3.826 2.072-6.047 2.264M64.322 6717.346l1.27-2.64c1.4-2.91.265-6.406-2.578-7.938l-2.58-1.39-.523-2.886c-.53-2.905-3.062-4.962-5.94-4.962-.27 0-.54.018-.812.056l-2.908.39-2.116-2.022c-1.17-1.115-2.67-1.673-4.175-1.673-1.503 0-3.008.56-4.174 1.674l-2.12 2.023-2.905-.39c-.272-.04-.543-.057-.812-.057-2.878 0-5.41 2.057-5.94 4.96l-.522 2.887-2.58 1.39c-2.845 1.532-3.98 5.028-2.58 7.94l1.27 2.64-1.27 2.642c-1.4 2.908-.264 6.406 2.582 7.937l2.58 1.39.52 2.882c.53 2.905 3.063 4.962 5.94 4.962.27 0 .54-.02.813-.056l2.906-.392 2.117 2.024c1.168 1.114 2.673 1.672 4.175 1.672 1.504 0 3.006-.558 4.175-1.672l2.12-2.024 2.904.392c.273.036.543.056.812.056 2.877 0 5.41-2.057 5.94-4.964l.523-2.88 2.578-1.39c2.846-1.532 3.98-5.03 2.582-7.942l-1.27-2.64zm-4.176 5.26l-5.14 2.77-1.044 5.74-5.784-.778-4.22 4.03-4.22-4.03-5.783.78-1.045-5.743-5.14-2.768 2.532-5.26-2.53-5.26 5.138-2.77 1.045-5.742 5.783.78 4.22-4.028 4.22 4.027 5.784-.78 1.045 5.743 5.14 2.77-2.53 5.26 2.53 5.26z"/></g></svg>